<svg width="172" height="172" viewBox="0 0 172 172" fill="none" xmlns="http://www.w3.org/2000/svg">
<path d="M169.458 157.239C170.263 158.038 170.903 158.989 171.339 160.036C171.775 161.084 172 162.207 172 163.342C172 164.477 171.775 165.6 171.339 166.647C170.903 167.695 170.263 168.645 169.458 169.444C168.658 170.25 167.708 170.89 166.66 171.326C165.613 171.762 164.49 171.987 163.355 171.987C162.22 171.987 161.097 171.762 160.049 171.326C159.002 170.89 158.051 170.25 157.252 169.444L85.9971 98.1035L14.742 169.444C13.943 170.25 12.9923 170.89 11.9449 171.326C10.8975 171.762 9.77403 171.987 8.63935 171.987C7.50466 171.987 6.38121 171.762 5.33379 171.326C4.28638 170.89 3.33572 170.25 2.53668 169.444C1.73105 168.645 1.09161 167.695 0.65524 166.647C0.218868 165.6 -0.00579834 164.477 -0.00579834 163.342C-0.00579834 162.207 0.218868 161.084 0.65524 160.036C1.09161 158.989 1.73105 158.038 2.53668 157.239L73.8777 85.9841L2.53668 14.729C0.918151 13.1105 0.00887144 10.9153 0.00887144 8.62632C0.00887144 7.49295 0.232105 6.37068 0.665827 5.32359C1.09955 4.27649 1.73527 3.32507 2.53668 2.52366C3.33809 1.72224 4.28951 1.08653 5.33661 0.652805C6.3837 0.219083 7.50598 -0.00415039 8.63935 -0.00415039C10.9283 -0.00415039 13.1235 0.905129 14.742 2.52366L85.9971 73.8647L157.252 2.52366C158.871 0.905129 161.066 -0.00415039 163.355 -0.00415039C165.644 -0.00415039 167.839 0.905129 169.458 2.52366C171.076 4.14218 171.985 6.33738 171.985 8.62632C171.985 10.9153 171.076 13.1105 169.458 14.729L98.1165 85.9841L169.458 157.239Z" fill="#072AC8"/>
</svg>
