<svg width="92" height="76" viewBox="0 0 92 76" fill="none" xmlns="http://www.w3.org/2000/svg">
<path d="M83.73 75.72H8.27002C6.3165 75.6489 4.46671 74.8228 3.10983 73.4156C1.75295 72.0084 0.994751 70.1298 0.994751 68.175C0.994751 66.2202 1.75295 64.3416 3.10983 62.9344C4.46671 61.5272 6.3165 60.7011 8.27002 60.63H83.73C85.6835 60.7011 87.5333 61.5272 88.8902 62.9344C90.2471 64.3416 91.0053 66.2202 91.0053 68.175C91.0053 70.1298 90.2471 72.0084 88.8902 73.4156C87.5333 74.8228 85.6835 75.6489 83.73 75.72Z" fill="#072AC8"/>
<path d="M83.73 45.54H8.27002C6.3165 45.4688 4.46671 44.6428 3.10983 43.2356C1.75295 41.8284 0.994751 39.9498 0.994751 37.9949C0.994751 36.0401 1.75295 34.1615 3.10983 32.7543C4.46671 31.3471 6.3165 30.5211 8.27002 30.45H83.73C85.6835 30.5211 87.5333 31.3471 88.8902 32.7543C90.2471 34.1615 91.0053 36.0401 91.0053 37.9949C91.0053 39.9498 90.2471 41.8284 88.8902 43.2356C87.5333 44.6428 85.6835 45.4688 83.73 45.54Z" fill="#072AC8"/>
<path d="M83.73 15.35H8.26999C7.28114 15.35 6.30197 15.1553 5.38838 14.7769C4.4748 14.3984 3.6447 13.8438 2.94548 13.1446C2.24625 12.4453 1.6916 11.6152 1.31318 10.7016C0.93476 9.78806 0.73999 8.80889 0.73999 7.82004C0.73999 6.83119 0.93476 5.85202 1.31318 4.93843C1.6916 4.02485 2.24625 3.19475 2.94548 2.49553C3.6447 1.7963 4.4748 1.24164 5.38838 0.863226C6.30197 0.484808 7.28114 0.290039 8.26999 0.290039H83.73C84.7188 0.290039 85.698 0.484808 86.6116 0.863226C87.5252 1.24164 88.3553 1.7963 89.0545 2.49553C89.7537 3.19475 90.3084 4.02485 90.6868 4.93843C91.0652 5.85202 91.26 6.83119 91.26 7.82004C91.26 8.80889 91.0652 9.78806 90.6868 10.7016C90.3084 11.6152 89.7537 12.4453 89.0545 13.1446C88.3553 13.8438 87.5252 14.3984 86.6116 14.7769C85.698 15.1553 84.7188 15.35 83.73 15.35Z" fill="#072AC8"/>
</svg>
